<svg xmlns="http://www.w3.org/2000/svg" viewBox="0 0 135.67 141.1"><title>Asset 32</title><g id="fdf84b17-54a6-4a45-91b0-f8f9881c6974" data-name="Layer 2"><g id="03a4656e-096b-4e00-b6bf-fd390496900f" data-name="Enhanced Icons ARTWORK"><line x1="49.11" y1="126.31" x2="87.14" y2="126.31" fill="none" stroke="#6dc1aa" stroke-linecap="round" stroke-linejoin="round" stroke-width="6"/><line x1="54.49" y1="138.1" x2="81.76" y2="138.1" fill="none" stroke="#6dc1aa" stroke-linecap="round" stroke-linejoin="round" stroke-width="6"/><line x1="132.67" y1="64.66" x2="119.03" y2="64.66" fill="none" stroke="#6dc1aa" stroke-linecap="round" stroke-linejoin="round" stroke-width="6"/><line x1="120.28" y1="26.55" x2="109.25" y2="34.57" fill="none" stroke="#6dc1aa" stroke-linecap="round" stroke-linejoin="round" stroke-width="6"/><line x1="87.87" y1="3" x2="83.65" y2="15.97" fill="none" stroke="#6dc1aa" stroke-linecap="round" stroke-linejoin="round" stroke-width="6"/><line x1="47.8" y1="3" x2="52.01" y2="15.97" fill="none" stroke="#6dc1aa" stroke-linecap="round" stroke-linejoin="round" stroke-width="6"/><line x1="15.38" y1="26.55" x2="26.41" y2="34.57" fill="none" stroke="#6dc1aa" stroke-linecap="round" stroke-linejoin="round" stroke-width="6"/><line x1="3" y1="64.66" x2="16.63" y2="64.66" fill="none" stroke="#6dc1aa" stroke-linecap="round" stroke-linejoin="round" stroke-width="6"/><line x1="15.38" y1="102.77" x2="26.41" y2="94.75" fill="none" stroke="#6dc1aa" stroke-linecap="round" stroke-linejoin="round" stroke-width="6"/><line x1="120.28" y1="102.77" x2="109.25" y2="94.75" fill="none" stroke="#6dc1aa" stroke-linecap="round" stroke-linejoin="round" stroke-width="6"/><path d="M68.12,47.8a17,17,0,0,0-17,17" fill="none" stroke="#6dc1aa" stroke-linecap="round" stroke-linejoin="round" stroke-width="6"/><path d="M87.14,93.51v21h-38v-21h0a33.93,33.93,0,1,1,38,0" fill="none" stroke="#6dc1aa" stroke-linecap="round" stroke-linejoin="round" stroke-width="6"/></g></g></svg>